# AST/ASF file generated using VICON BodyLanguage
# -----------------------------------------------
:version 1.10
:name VICON
:units
  mass 1.0
  length 0.45
  angle deg
:documentation
   .ast/.asf automatically generated from VICON data using
   VICON BodyBuilder and BodyLanguage model FoxedUp or BRILLIANT.MOD
:root
   order TX TY TZ RX RY RZ
   axis XYZ
   position 0 0 0  
   orientation 0 0 0 
:bonedata
  begin
     id 1 
     name lhipjoint
     direction 0.700308 -0.549349 0.455834 
     length 2.59063 
     axis 0 0 0  XYZ
  end
  begin
     id 2 
     name lfemur
     direction 0.34202 -0.939693 0  
     length 6.31066  
     axis 0 0 20  XYZ
    dof rx ry rz
    limits (-160.0 20.0)
           (-70.0 70.0)
           (-60.0 70.0)
  end
  begin
     id 3 
     name ltibia
     direction 0.34202 -0.939693 0   
     length 7.36093   
     axis 0 0 20   XYZ
    dof rx
    limits (-10.0 170.0)
  end
  begin
     id 4 
     name lfoot
     direction 0.0905332 -0.248738 0.96433   
     length 2.0233   
     axis -90 7.62852e-016 20   XYZ
    dof rx rz
    limits (-45.0 90.0)
           (-70.0 20.0)
  end
  begin
     id 5 
     name ltoes
     direction 1.53573e-011 -4.21855e-011 1   
     length 1.01524   
     axis -90 7.62852e-016 20   XYZ
    dof rx
    limits (-90.0 20.0)
  end
  begin
     id 6 
     name rhipjoint
     direction -0.61416 -0.607328 0.503944   
     length 2.34332  
     axis 0 0 0  XYZ 
  end
  begin
     id 7 
     name rfemur
     direction -0.34202 -0.939693 0   
     length 6.58548   
     axis 0 0 -20   XYZ
    dof rx ry rz
    limits (-160.0 20.0)
           (-70.0 70.0)
           (-70.0 60.0)
  end
  begin
     id 8 
     name rtibia
     direction -0.34202 -0.939693 0   
     length 7.20707   
     axis 0 0 -20   XYZ
    dof rx
    limits (-10.0 170.0)
 end
 begin
     id 9 
     name rfoot
     direction -0.136772 -0.375778 0.916561   
     length 1.92184  
     axis -90 -7.62852e-016 -20   XYZ
    dof rx rz
    limits (-45.0 90.0)
           (-20.0 70.0)
  end
  begin
     id 10 
     name rtoes
     direction -1.53535e-011 -4.21828e-011 1   
     length 0.951089   
     axis -90 -7.62852e-016 -20   XYZ
    dof rx
    limits (-90.0 20.0)
  end
  begin
     id 11 
     name lowerback
     direction -0.0444974 0.988086 -0.147332   
     length 1.9609   
     axis 0 0 0   XYZ
    dof rx ry rz
    limits (-20.0 45.0)
           (-30.0 30.0)
           (-30.0 30.0)
  end
  begin
     id 12 
     name upperback
     direction 0.00613146 0.999513 0.0306081   
     length 1.94944   
     axis 0 0 0   XYZ
    dof rx ry rz
    limits (-20.0 45.0)
           (-30.0 30.0)
           (-30.0 30.0)
  end
  begin
     id 13 
     name thorax
     direction 0.0254621 0.994518 0.101418   
     length 2.0119   
     axis 0 0 0   XYZ
    dof rx ry rz
    limits (-20.0 45.0)
           (-30.0 30.0)
           (-30.0 30.0)
  end
  begin
     id 14 
     name lowerneck
     direction 0.0168698 0.977854 0.208608   
     length 1.6375   
     axis 0 0 0   XYZ
    dof rx ry rz
    limits (-20.0 45.0)
           (-30.0 30.0)
           (-30.0 30.0)
  end
  begin
     id 15 
     name upperneck
     direction -0.0283988 0.989338 -0.142843   
     length 1.6851   
     axis 0 0 0   XYZ
    dof rx ry rz
    limits (-20.0 45.0)
           (-30.0 30.0)
           (-30.0 30.0)
  end
  begin
     id 16
     name head
     direction -0.0129422 0.99741 -0.0707489  
     length 1.69029  
     axis 0 0 0   XYZ
    dof rx ry rz
    limits (-20.0 45.0)
           (-30.0 30.0)
           (-30.0 30.0)
  end
  begin
     id 17 
     name lclavicle
     direction 0.820295 0.564628 -0.0911715  
     length 3.16484  
     axis 0 0 0   XYZ
    dof ry rz
    limits (-20.0 10.0)
           (0.0 20.0)
  end
  begin
     id 18 
     name lhumerus
     direction 1 -4.48969e-011 1.00186e-027   
     length 5.17853   
     axis 180 -30 -90   XYZ
    dof rx ry rz
    limits (-60.0 90.0)
           (-90.0 90.0)
           (-90.0 90.0)
  end
  begin
     id 19
     name lradius
     direction 1 -4.48966e-011 -1.52922e-027   
     length 3.40399   
     axis 180 -30 -90   XYZ
    dof rx
    limits (-10.0 170.0)
  end
  begin
     id 20
     name lwrist
     direction 1 -4.48981e-011 -3.80893e-027   
     length 1.70199   
     axis 1.1049e-015 90 90   XYZ
    dof ry
    limits (-180.0 0.0)
 end
  begin
     id 21 
     name lhand
     direction 1 -4.48957e-011 -7.61786e-027   
     length 0.708964   
     axis 4.86085e-015 90 90   XYZ
    dof rx rz
    limits (-90.0 90.0)
           (-45.0 45.0)
  end
  begin
     id 22 
     name lfingers
     direction 1 -4.48929e-011 -1.52357e-026   
     length 0.571585   
     axis 9.7217e-015 90 90   XYZ
    dof rx
    limits (0.0 90.0)
  end
  begin
     id 23
     name lthumb
     direction 0.707107 -6.34905e-011 0.707107   
     length 0.820685   
     axis -90 45 2.85299e-015   XYZ
    dof rx rz
    limits (-45.0 45.0)
           (-45.0 45.0)
  end
  begin
     id 24 
     name rclavicle
     direction -0.858602 0.463947 -0.218075   
     length 3.35137  
     axis 0 0 0   XYZ 
    dof ry rz
    limits (-10.0 20.0)
           (-20.0 0.0)
  end
  begin
     id 25 
     name rhumerus
     direction -1 -4.48969e-011 -1.98511e-027  
     length 5.42351   
     axis 180 30 90   XYZ
    dof rx ry rz
    limits (-90.0 60.0)
           (-90.0 90.0)
           (-90.0 90.0)
  end
  begin
     id 26 
     name rradius
     direction -1 -4.48961e-011 -2.82624e-027   
     length 3.42066   
     axis 180 30 90   XYZ
    dof rx
    limits (-10.0 170.0)
  end
  begin
     id 27 
     name rwrist
     direction -1 -4.48966e-011 -3.80893e-027   
     length 1.71033   
     axis 1.1049e-015 -90 -90   XYZ
    dof ry
    limits (-180.0 0.0)
  end
  begin
     id 28
     name rhand
     direction -1 -4.48964e-011 -7.61786e-027   
     length 0.743608   
     axis 4.86085e-015 -90 -90   XYZ
    dof rx rz
    limits (-90.0 90.0)
           (-45.0 45.0)
  end
  begin
     id 29
     name rfingers
     direction -1 -4.48961e-011 -1.52357e-026   
     length 0.599516   
     axis 9.7217e-015 -90 -90   XYZ
    dof rx
    limits (0.0 90.0)
  end
  begin
     id 30
     name rthumb
     direction -0.707107 -6.34913e-011 0.707107   
     length 0.860789   
     axis -90 -45 -2.85299e-015   XYZ
    dof rx rz
    limits (-45.0 45.0)
           (-45.0 45.0)
  end
:hierarchy
  begin
    root lhipjoint rhipjoint lowerback
    lhipjoint lfemur
    lfemur ltibia
    ltibia lfoot
    lfoot ltoes
    rhipjoint rfemur
    rfemur rtibia
    rtibia rfoot
    rfoot rtoes
    lowerback upperback
    upperback thorax
    thorax lowerneck lclavicle rclavicle
    lowerneck upperneck
    upperneck head
    lclavicle lhumerus
    lhumerus lradius
    lradius lwrist
    lwrist lhand lthumb
    lhand lfingers
    rclavicle rhumerus
    rhumerus rradius
    rradius rwrist
    rwrist rhand rthumb
    rhand rfingers
  end

#!OML:ASF E:\mmandel\Project 1\Capture day 1\Session 2\Subject.ASF
:FULLY-SPECIFIED
:DEGREES
528
root 4.63327 10.3928 -0.719869 195.841 87.7048 162.896
lowerback 39.5778 1.0107 -0.544979
upperback 9.43301 2.15833 -0.468413
thorax -8.69405 1.45986 -1.15365
lowerneck -26.6078 3.11485 7.32287
upperneck 16.2805 3.69841 -9.45292
head 9.84395 1.05442 -3.97474
rclavicle -5.56597e-015 1.33186e-014
rhumerus 58.8519 -12.9386 -91.1267
rradius 12.9
rwrist -307.419
rhand -5.33801 33.8449
rfingers 7.12502
rthumb 20.4686 4.90379
lclavicle -5.56597e-015 1.33186e-014
lhumerus 63.2615 -16.885 39.7535
lradius 22.2541
lwrist 15.3792
lhand -15.0394 -28.9029
lfingers 7.12502
lthumb 11.1268 0.782124
rfemur -111.778 -21.3838 43.7331
rtibia 129.268
rfoot -36.7302 -10.3285
rtoes -6.5738
lfemur -122.528 32.8038 -39.1307
ltibia 121.288
lfoot -20.5515 -8.00207
ltoes -5.11245
529
root 4.60713 10.5487 -0.732934 194.305 87.5371 161.581
lowerback 40.4571 0.82748 -0.360274
upperback 9.39298 2.0288 -0.454573
thorax -9.01676 1.40614 -1.20461
lowerneck -26.3067 3.04733 7.10508
upperneck 15.9622 3.70292 -9.52182
head 9.67862 1.04498 -3.95363
rclavicle 2.22639e-014 4.73108e-014
rhumerus 58.0095 -12.2692 -89.1435
rradius 12.9493
rwrist -309.176
rhand -5.7616 34.0586
rfingers 7.12502
rthumb 20.0615 5.0743
lclavicle 2.22639e-014 4.73108e-014
lhumerus 62.6216 -16.8929 39.787
lradius 22.4684
lwrist 14.7381
lhand -15.2216 -28.9085
lfingers 7.12502
lthumb 10.951 0.785926
rfemur -110.392 -21.4898 43.064
rtibia 127.76
rfoot -36.7259 -10.3288
rtoes -6.76062
lfemur -120.419 31.8905 -38.3359
ltibia 119.743
lfoot -20.583 -7.17892
ltoes -4.81666
530
root 4.58448 10.6914 -0.735867 196.536 87.694 163.762
lowerback 40.7891 0.906724 -0.446761
upperback 9.43104 2.1085 -0.383781
thorax -9.08084 1.44429 -1.12345
lowerneck -25.2693 3.31853 8.10363
upperneck 14.5297 4.00675 -10.9811
head 9.09414 1.12699 -4.55746
rclavicle -7.31528e-014 -5.04913e-014
rhumerus 57.1848 -11.3047 -86.6846
rradius 12.7957
rwrist -311.605
rhand -6.33184 34.3751
rfingers 7.12502
rthumb 19.5133 5.33433
lclavicle -7.31528e-014 -5.04913e-014
lhumerus 62.0951 -16.8964 39.5959
lradius 22.7451
lwrist 14.7814
lhand -15.4737 -29.157
lfingers 7.12502
lthumb 10.7079 0.550117
rfemur -109.123 -20.7484 42.4736
rtibia 126.251
rfoot -36.7402 -10.5316
rtoes -6.44447
lfemur -119.098 31.474 -37.9142
ltibia 118.298
lfoot -20.6367 -6.42855
ltoes -5.55273
531
root 4.56074 10.8183 -0.739958 197.647 87.9648 164.41
lowerback 40.5062 1.05098 -0.608047
upperback 9.4596 2.20897 -0.382835
thorax -8.96284 1.48644 -1.07202
lowerneck -26.0295 3.14616 7.41186
upperneck 15.6232 3.842 -10.0504
head 9.54628 1.07891 -4.16401
rclavicle -3.97569e-015 8.74653e-015
rhumerus 55.9507 -10.1106 -83.9032
rradius 13.3028
rwrist -314.761
rhand -6.03533 34.3716
rfingers 7.12502
rthumb 19.7984 5.35991
lclavicle -3.97569e-015 8.74653e-015
lhumerus 61.5564 -17.1984 38.6472
lradius 23.4239
lwrist 15.8085
lhand -15.9 -29.2468
lfingers 7.12502
lthumb 10.2966 0.481161
rfemur -108.523 -19.6903 41.916
rtibia 124.828
rfoot -36.5546 -10.6904
rtoes -5.63736
lfemur -118.502 30.9609 -37.8518
ltibia 116.992
lfoot -20.6574 -5.56246
ltoes -6.59798
532
root 4.53938 10.9468 -0.745501 200.794 88.0541 167.08
lowerback 40.2392 1.06907 -0.598827
upperback 9.44722 2.2259 -0.349694
thorax -8.89377 1.48795 -1.04161
lowerneck -26.3217 3.06193 7.0676
upperneck 16.183 3.78441 -9.65688
head 9.77064 1.06244 -3.98839
rclavicle 1.74931e-014 3.598e-014
rhumerus 54.6243 -9.10879 -81.7818
rradius 14.2449
rwrist -317.392
rhand -5.69095 34.3679
rfingers 7.12502
rthumb 20.1294 5.3907
lclavicle 1.74931e-014 3.598e-014
lhumerus 60.9364 -17.6565 37.2787
lradius 24.2605
lwrist 17.1003
lhand -16.3331 -28.9456
lfingers 7.12502
lthumb 9.87878 0.802656
rfemur -108.013 -18.8455 41.5347
rtibia 123.311
rfoot -36.3316 -10.9472
rtoes -4.80274
lfemur -117.903 30.2096 -37.6628
ltibia 115.642
lfoot -20.5373 -4.40126
ltoes -8.26756
533
root 4.52479 11.0879 -0.754052 202.803 87.8755 168.966
lowerback 40.4918 0.879338 -0.341698
upperback 9.42461 2.10366 -0.33073
thorax -8.99517 1.43163 -1.11142
lowerneck -26.0837 3.15369 7.28351
upperneck 15.9479 3.91555 -10.0283
head 9.67449 1.10273 -4.13093
rclavicle -8.74653e-015 -7.95139e-016
rhumerus 53.5376 -8.3914 -80.3404
rradius 14.8892
rwrist -319.375
rhand -5.55516 34.5476
rfingers 7.12502
rthumb 20.2599 5.58424
lclavicle -8.74653e-015 -7.95139e-016
lhumerus 60.3439 -18.1634 35.842
lradius 25.0177
lwrist 18.441
lhand -16.8275 -28.796
lfingers 7.12502
lthumb 9.4018 0.974293
rfemur -107.056 -18.5859 41.2382
rtibia 121.719
rfoot -36.368 -11.1356
rtoes -3.96243
lfemur -116.62 29.3929 -37.2362
ltibia 114.178
lfoot -20.4582 -3.41246
ltoes -8.90867
534
root 4.5135 11.24 -0.766356 201.072 87.6187 167.337
lowerback 41.0115 0.601845 -0.00211856
upperback 9.4743 1.92471 -0.361975
thorax -9.09552 1.35803 -1.25785
lowerneck -26.309 3.16102 6.83332
upperneck 16.277 4.02762 -9.70005
head 9.82234 1.15426 -3.92787
rclavicle 3.81667e-014 1.05356e-014
rhumerus 52.6615 -7.82726 -79.0546
rradius 15.3219
rwrist -321.092
rhand -5.78965 34.8518
rfingers 7.12502
rthumb 20.0346 5.86468
lclavicle 3.81667e-014 1.05356e-014
lhumerus 59.7929 -18.5368 34.8693
lradius 25.662
lwrist 19.5629
lhand -16.9346 -28.6454
lfingers 7.12502
lthumb 9.29849 1.12956
rfemur -105.838 -18.7276 40.87
rtibia 120.105
rfoot -36.4018 -11.3329
rtoes -3.55366
lfemur -114.862 28.5771 -36.7921
ltibia 112.621
lfoot -20.5309 -2.77167
ltoes -7.51115
535
root 4.49813 11.3685 -0.774891 203.807 87.6124 169.586
lowerback 40.693 0.563727 0.122965
upperback 9.47718 1.91802 -0.336706
thorax -8.99205 1.34929 -1.28569
lowerneck -26.1936 3.11404 6.97839
upperneck 16.3135 3.88514 -9.57227
head 9.80064 1.11437 -3.9289
rclavicle 0 -9.93923e-016
rhumerus 51.6903 -7.25333 -77.8051
rradius 15.7566
rwrist -322.782
rhand -6.29342 35.0755
rfingers 7.12502
rthumb 19.5503 6.03842
lclavicle 0 -9.93923e-016
lhumerus 59.2081 -19.0492 33.8433
lradius 26.3423
lwrist 20.6708
lhand -17.0523 -28.0791
lfingers 7.12502
lthumb 9.18488 1.70088
rfemur -105.422 -18.1913 40.7243
rtibia 118.624
rfoot -36.2029 -11.6157
rtoes -2.82843
lfemur -114.281 27.8873 -36.6565
ltibia 111.218
lfoot -20.3889 -2.16582
ltoes -6.11417
536
root 4.48218 11.4969 -0.780267 204.813 87.6407 170.224
lowerback 40.5546 0.591265 0.098991
upperback 9.46604 1.93752 -0.29945
thorax -8.96271 1.35409 -1.23852
lowerneck -26.132 3.17892 7.10028
upperneck 16.4542 3.91337 -9.46097
head 9.84154 1.14761 -3.90712
rclavicle 9.54166e-015 -2.96189e-014
rhumerus 50.7109 -6.63444 -76.5364
rradius 16.1772
rwrist -324.921
rhand -6.31919 34.9506
rfingers 7.12502
rthumb 19.5255 5.91099
lclavicle 9.54166e-015 -2.96189e-014
lhumerus 58.6541 -19.5841 32.7625
lradius 27.1192
lwrist 21.9388
lhand -17.859 -27.7241
lfingers 7.12502
lthumb 8.4064 2.08856
rfemur -104.908 -17.7195 40.5332
rtibia 117.156
rfoot -36.023 -11.8782
rtoes -2.10627
lfemur -113.563 27.3382 -36.5323
ltibia 109.792
lfoot -20.1729 -1.60334
ltoes -6.4773
